<svg xmlns="http://www.w3.org/2000/svg" viewBox="0 0 64 64" width="48" height="48" role="img" aria-labelledby="title">
  <title id="title">Achievement</title>
  <rect x="2" y="2" width="60" height="60" rx="20" fill="transparent"/>
  <g fill="none" stroke="#FACC15" stroke-width="4" stroke-linecap="round" stroke-linejoin="round">
    <rect x="4" y="4" width="56" height="56" rx="10"/>
    <path d="M22 16h20v8c0 8-4.5 14-10 14S22 32 22 24z"/>
    <path d="M22 20h-7v3c0 7 4 11 10 11M42 20h7v3c0 7-4 11-10 11"/>
    <path d="M32 38v8M24 50h16"/>
    <path d="m32 21 2.2 4.4 4.8.7-3.5 3.4.8 4.8-4.3-2.2-4.3 2.2.8-4.8-3.5-3.4 4.8-.7z"/>
  </g>
</svg>
